<?xml version="1.0" encoding="utf-8"?>
<!-- Generator: Adobe Illustrator 16.0.0, SVG Export Plug-In . SVG Version: 6.00 Build 0)  -->
<!DOCTYPE svg PUBLIC "-//W3C//DTD SVG 1.1//EN" "http://www.w3.org/Graphics/SVG/1.1/DTD/svg11.dtd">
<svg version="1.1" id="图层_1" xmlns="http://www.w3.org/2000/svg" xmlns:xlink="http://www.w3.org/1999/xlink" x="0px" y="0px"
	viewBox="0 0 160 40" enable-background="new 0 0 160 40" xml:space="preserve">
<path d="M0.477,25.108h4.352v2.728h3.947v-5.158H3.514c-1.67,0-3.036-1.149-3.036-2.557v-7.373c0-1.406,1.366-2.557,3.036-2.557
	h9.614v6.392H8.776v-2.727H4.83v5.156h5.263c1.669,0,3.036,1.15,3.036,2.558v7.374c0,1.404-1.366,2.558-3.036,2.558H3.514
	c-1.67,0-3.036-1.151-3.036-2.558L0.477,25.108L0.477,25.108z"/>
<path d="M16.518,3.798h4.353v4.262h-4.353V3.798z M16.518,10.191h4.353v21.311h-4.353V10.191z"/>
<path d="M24.26,12.749c0-1.406,1.367-2.557,3.036-2.557h5.262V1.668h4.352v29.833h-9.614c-1.669,0-3.036-1.151-3.036-2.558V12.749z
	 M32.558,27.836V13.857h-3.947v13.979H32.558z"/>
<path d="M38.076,14.701c-0.368-1.356,0.65-2.825,2.263-3.261l9.28-2.513l3.149,11.643c0.368,1.357-0.649,2.825-2.261,3.264
	l-5.08,1.372l0.791,2.921l8.011-2.168l0.958,3.537l-9.281,2.511c-1.611,0.437-3.23-0.316-3.597-1.674L38.076,14.701z M48.279,20.639
	l-1.904-7.035l-3.808,1.031l1.902,7.033L48.279,20.639z"/>
<path fill="#39B56E" d="M55.63,12.749c0-1.406,1.367-2.557,3.036-2.557h9.615v18.753c0,1.404-1.366,2.558-3.037,2.558h-5.418
	l-0.063,6.561H55.63V12.749z M63.929,27.836V13.857h-3.945v13.979H63.929z"/>
<path fill="#39B56E" d="M71.316,12.749c0-1.406,1.367-2.557,3.037-2.557h6.578c1.67,0,3.037,1.151,3.037,2.557v16.196
	c0,1.404-1.366,2.558-3.037,2.558h-6.578c-1.67,0-3.037-1.151-3.037-2.558V12.749z M79.614,27.836V13.857h-3.946v13.979H79.614z"/>
<path fill="#39B56E" d="M87.002,25.108h4.352v2.728h3.947v-5.158h-5.264c-1.668,0-3.036-1.149-3.036-2.557v-7.373
	c0-1.406,1.366-2.557,3.036-2.557h9.616v6.392h-4.353v-2.727h-3.947v5.156h5.265c1.669,0,3.037,1.15,3.037,2.558v7.374
	c0,1.404-1.367,2.558-3.037,2.558h-6.579c-1.67,0-3.037-1.151-3.037-2.558V25.108z"/>
<path fill="#39B56E" d="M103.042,3.798h4.354v4.262h-4.354V3.798z M103.042,10.191h4.354v21.311h-4.354V10.191z"/>
<path fill="#39B56E" d="M110.784,3.798h4.352v6.393h5.366v3.596l-5.366,0.07v13.979l5.366,0.008v3.658h-6.684
	c-1.668,0-3.035-1.151-3.035-2.558L110.784,3.798L110.784,3.798z"/>
<path fill="#39B56E" d="M123.492,4.17h4.354v4.262h-4.354V4.17z M123.492,10.563h4.354v21.308h-4.354V10.563z"/>
<path fill="#39B56E" d="M131.236,13.12c0-1.406,1.364-2.557,3.035-2.557h6.579c1.669,0,3.036,1.151,3.036,2.557v16.194
	c0,1.406-1.365,2.557-3.036,2.557h-6.579c-1.67,0-3.035-1.149-3.035-2.557V13.12z M139.534,28.206V14.228h-3.947v13.979H139.534z"/>
<path fill="#39B56E" d="M146.921,13.12c0-1.406,1.366-2.557,3.036-2.557h9.615v21.308h-4.351V14.228h-3.947V31.87h-4.353
	L146.921,13.12L146.921,13.12z"/>
</svg>
